#!OML:ASF F:\VICON\USERDATA\INSTALL\rory3\rory3.ASF
:FULLY-SPECIFIED
:DEGREES
200
root 0.48326759822707077 17.75336800412755 64.40215942121331 -0.9626470997441627 -1.4128905134572105 -2.7744945685733287
lfemur -11.927299020848139 -2.720064276956727 -18.335863715790005
ltibia 27.634189933787617
lfoot 5.024185510052954 -5.150660428098244
ltoes -2.856971437294219
rfemur -13.660482124620351 4.699611898090435 25.852174406031782
rtibia 38.02661726484213
rfoot -5.507813733456573 -8.040355162524776
rtoes 6.934246129442336
lowerback 11.043062621102182 0.7545212015074879 2.5666595222280324
upperback -0.07871615332089409 1.5656273133881853 1.8612253176901172
thorax -5.993074544261978 0.7662472784929499 -0.18781675075695503
lowerneck -16.410403546852567 -3.0136290787847746 -3.316896331951722
upperneck 22.141998019533943 -3.6621256505424298 1.4334117048396786
head 9.648948707142468 -1.803390779473061 0.6966079494012383
lclavicle -2.027406973027675e-15 -7.123573503702915e-16
lhumerus -30.87209535391814 1.3763317377743487 81.05264253182945
lradius 30.207889226519555
lwrist 7.804994104082551
lhand -30.644489054092634 18.263326844971484
lfingers 7.12502
lthumb -3.7645857199685206 48.34234263641192
rclavicle -2.0275994142031698e-15 -7.124626923007114e-16
rhumerus -29.827218237133874 -21.067278943136504 -75.59930569729195
rradius 20.82103288647619
rwrist 5.574419494997567
rhand -17.48682026695842 21.258299756515715
rfingers 7.12502
rthumb 7.966968625817934 -7.436209845107421
201
root 0.48579570645678616 17.74053240670857 64.32679654695275 -0.9532906616499475 -1.5075161890860178 -2.778468112913278
lfemur -11.773702554773148 -2.610935112463 -18.395180072522052
ltibia 28.234927946026083
lfoot 4.207991823569079 -3.9996298126207916
ltoes -3.053652056389174
rfemur -13.971653626394009 4.694274070871341 25.736415492837033
rtibia 38.65202157857802
rfoot -4.794237023344899 -8.567459602824679
rtoes 7.789723715840752
lowerback 11.082786026309748 0.7542163403600816 2.579341798665445
upperback -0.11833635545072563 1.5647002413971411 1.867351681888873
thorax -6.037777145172125 0.7721320311904534 -0.18025590432060534
lowerneck -16.394044448256697 -3.02210155368369 -3.3306009777570287
upperneck 22.107293030316885 -3.677781596526299 1.4495550791459537
head 9.634939462001489 -1.8071351941100555 0.6956727805028535
lclavicle -2.027038827640254e-15 -7.121230272054842e-16
lhumerus -31.085898056076168 1.3282554775187494 81.1144579348146
lradius 30.029020269187964
lwrist 7.721330499239223
lhand -30.753778362573605 18.347877316387574
lfingers 7.12502
lthumb -3.827040820619732 48.414549450669455
rclavicle -2.0278572740875694e-15 -7.126273551417934e-16
rhumerus -29.85915074045904 -21.04621069957671 -75.54270630938366
rradius 21.008211476790024
rwrist 5.543977903990336
rhand -17.59228973447531 21.27753767826597
rfingers 7.12502
rthumb 7.890957107062127 -7.487769711962128
202
root 0.49230627110026426 17.715987942752122 64.39095044418093 -0.8484633650988804 -1.5981187515116129 -2.6917946936382267
lfemur -11.679749807766127 -2.5456972516577503 -18.531208076802393
ltibia 28.58552758886817
lfoot 3.2761710172104994 -2.9871128525701933
ltoes -3.2413780998578883
rfemur -14.3256641648278 4.607918737556933 25.545565258175436
rtibia 39.24668092893139
rfoot -4.441427832049049 -9.197389559919815
rtoes 8.269303212119034
lowerback 11.074198051788928 0.7424215481888033 2.5111052829313545
upperback -0.14236847434477878 1.5287281856653434 1.8603887538418544
thorax -6.047267835530881 0.7567028011681154 -0.14834879923589694
lowerneck -16.40186378179302 -3.031355300857955 -3.3371355824456614
upperneck 22.0852052852165 -3.692954526138246 1.4989849038728937
head 9.637972160955066 -1.8088279347757423 0.7012307761628944
lclavicle -2.0268208019068526e-15 -7.119854239313701e-16
lhumerus -31.274577989345268 1.2174648705847555 81.16308152819141
lradius 29.758252196013036
lwrist 7.4194347176110185
lhand -30.720610677188734 18.497789376549573
lfingers 7.12502
lthumb -3.77628946265088 48.50988816046716
rclavicle -2.0275527270059537e-15 -7.124328915710673e-16
rhumerus -29.84162481016551 -21.05898206538233 -75.49389120620793
rradius 21.118066206093623
rwrist 5.5701757119536195
rhand -17.658638698041155 21.299587566659355
rfingers 7.12502
rthumb 7.859036674464631 -7.485161014291494
203
root 0.493289821038008 17.70777035666944 64.28149324075224 -0.8541512989073987 -1.6479949733456056 -2.6684519595552567
lfemur -11.481980079072393 -2.490060032021713 -18.586255645396815
ltibia 28.74522817029603
lfoot 2.4778510842171233 -2.1904501229561406
ltoes -4.280445883222649
rfemur -14.697175231757742 4.500827835461854 25.395064142381628
rtibia 39.60844171938777
rfoot -4.146237030405278 -9.85497964539193
rtoes 7.823124719414462
lowerback 11.10069176951887 0.7291276202025571 2.483902171392625
upperback -0.1524469617174737 1.4982866364288148 1.8632360550837195
thorax -6.0441700454101275 0.748912111185388 -0.11952429734716175
lowerneck -16.419254137968437 -3.0418977556010582 -3.327446842846305
upperneck 22.08322533863669 -3.713196032391751 1.5184131384597057
head 9.64575535965091 -1.8133928799443326 0.6949748740581358
lclavicle -2.0269314661997727e-15 -7.120561925329453e-16
lhumerus -31.45049020020582 1.1233890172989809 81.18487723464763
lradius 29.417246005055134
lwrist 7.167390260552825
lhand -30.671401771700587 18.625966964244913
lfingers 7.12502
lthumb -3.737387786296888 48.65012993586442
rclavicle -2.0281673927672933e-15 -7.12825386896207e-16
rhumerus -29.81091101787711 -21.085049723909535 -75.53028915208569
rradius 21.172774940603936
rwrist 5.63666763585579
rhand -17.699431246734 21.324358248016743
rfingers 7.12502
rthumb 7.84625561345406 -7.478094757254289
204
root 0.4962413316163172 17.687112533835787 64.26583601353386 -0.7761574699425866 -1.707285556430334 -2.6652992830122244
lfemur -11.3250533421111 -2.4344628081725173 -18.529341627032533
ltibia 28.990362223555152
lfoot 1.6929684269769645 -1.5669498053835862
ltoes -4.507736439809036
rfemur -15.087052947798595 4.373605997662571 25.315964769291284
rtibia 39.90977803736056
rfoot -3.886763079725273 -10.344423462414765
rtoes 7.604360788272887
lowerback 11.098604284014721 0.7054598840839911 2.4608409641460156
upperback -0.17977934868583323 1.4576286274441055 1.8665138091729043
thorax -6.054078010461368 0.7215140376671045 -0.12402007038959106
lowerneck -16.437981611939374 -3.0512820544694033 -3.321968915832236
upperneck 22.086527682251617 -3.7268012166401396 1.525238169414939
head 9.656631562000094 -1.8172858683119308 0.6874146370471603
lclavicle -2.026532495003356e-15 -7.118019682910347e-16
lhumerus -31.623756542954972 1.0465243031800036 81.16813166702146
lradius 29.009870726362195
lwrist 6.654457438148891
lhand -30.42174231148428 18.81835184086229
lfingers 7.12502
lthumb -3.4597340003045574 48.91966086292839
rclavicle -2.0281331520999993e-15 -7.12803521451727e-16
rhumerus -29.79921994789654 -21.20938595805824 -75.49493662299538
rradius 21.16708213424128
rwrist 5.694928732744707
rhand -17.728962507630524 21.31116192248559
rfingers 7.12502
rthumb 7.814507514713165 -7.609646052716319
